<?xml version="1.0" encoding="UTF-8"?>
<svg id="Capa_1" data-name="Capa 1" xmlns="http://www.w3.org/2000/svg" width="344.6" height="391.28" viewBox="0 0 344.6 391.28">
  <defs>
    <style>
      .cls-1 {
        fill: red;
      }
    </style>
  </defs>
  <polygon class="cls-1" points="253.28 81.95 172.3 0 91.32 81.95 172.3 163.91 161.96 174.37 126.64 138.62 91.32 174.37 172.3 256.32 253.28 174.37 172.3 92.41 182.54 82.18 217.96 117.7 253.28 81.95"/>
  <polygon points="80.98 184.83 172.3 277.24 263.62 184.83 298.94 220.57 172.3 348.73 45.66 220.57 80.98 184.83"/>
  <polygon class="cls-1" points="80.98 92.41 45.66 128.16 80.98 163.91 116.3 128.16 80.98 92.41"/>
  <polygon points="0 174.37 35.32 210.11 70.64 174.37 35.32 138.62 0 174.37"/>
  <polygon class="cls-1" points="228.29 128.16 263.62 92.41 298.94 128.16 263.62 163.91 228.29 128.16"/>
  <polygon points="273.95 174.37 309.28 138.62 344.6 174.37 309.28 210.11 273.95 174.37"/>
  <g>
    <polygon class="cls-1" points="164.99 360.99 0 194.02 0 224.31 164.99 391.28 164.99 360.99"/>
    <polygon class="cls-1" points="179.61 360.99 179.61 391.28 344.6 224.31 344.6 194.02 179.61 360.99"/>
  </g>
</svg>