<?xml version="1.0" encoding="utf-8"?>
<!-- Generator: Adobe Illustrator 27.7.0, SVG Export Plug-In . SVG Version: 6.00 Build 0)  -->
<svg version="1.1" id="Capa_1" xmlns="http://www.w3.org/2000/svg" xmlns:xlink="http://www.w3.org/1999/xlink" x="0px" y="0px"
	 viewBox="0 0 1401.4 391.3" style="enable-background:new 0 0 1401.4 391.3;" xml:space="preserve">
<style type="text/css">
	.st0{fill:#FF0000;}
	.st1{font-family:'Microsoft-Yi-Baiti';}
	.st2{font-size:123.2851px;}
	.st3{font-family:'ArialMT';}
	.st4{font-size:130.8184px;}
	.st5{fill:none;stroke:#FF0000;stroke-width:20;stroke-miterlimit:10;}
	.st6{fill:none;stroke:#000000;stroke-width:20;stroke-miterlimit:10;}
</style>
<g>
	<polygon class="st0" points="253.3,81.9 172.3,0 91.3,81.9 172.3,163.9 162,174.4 126.6,138.6 91.3,174.4 172.3,256.3 253.3,174.4 
		172.3,92.4 182.5,82.2 218,117.7 	"/>
	<polygon points="81,184.8 172.3,277.2 263.6,184.8 298.9,220.6 172.3,348.7 45.7,220.6 	"/>
	<polygon class="st0" points="81,92.4 45.7,128.2 81,163.9 116.3,128.2 	"/>
	<polygon points="0,174.4 35.3,210.1 70.6,174.4 35.3,138.6 	"/>
	<polygon class="st0" points="228.3,128.2 263.6,92.4 298.9,128.2 263.6,163.9 	"/>
	<polygon points="274,174.4 309.3,138.6 344.6,174.4 309.3,210.1 	"/>
	<g>
		<polygon class="st0" points="165,361 0,194 0,224.3 165,391.3 		"/>
		<polygon class="st0" points="179.6,361 179.6,391.3 344.6,224.3 344.6,194 		"/>
	</g>
</g>
<text transform="matrix(1 0 0 1 398.2593 185.8731)" class="st1 st2">C Y B E R</text>
<text transform="matrix(1 0 0 1 806.626 326.7672)" class="st0 st3 st4">S HOP</text>
<line class="st5" x1="399" y1="71.8" x2="722.3" y2="71.8"/>
<line class="st6" x1="399" y1="213.8" x2="1024.8" y2="213.8"/>
</svg>
